<?xml version="1.0" encoding="iso-8859-1"?>
<!-- Uploaded to: SVG Repo, www.svgrepo.com, Generator: SVG Repo Mixer Tools -->
<svg fill="#ffffff" height="800px" width="800px" version="1.1" id="Layer_1" xmlns="http://www.w3.org/2000/svg" xmlns:xlink="http://www.w3.org/1999/xlink" 
	 viewBox="0 0 512 512" xml:space="preserve">
<g>
	<g>
		<path d="M439.652,250.435c0-9.22-7.475-16.696-16.696-16.696c-9.22,0-16.696,7.475-16.696,16.696
			c0,82.854-67.407,150.261-150.261,150.261s-150.261-67.407-150.261-150.261c0-9.22-7.475-16.696-16.696-16.696
			c-9.22,0-16.696,7.475-16.696,16.696c0,95.638,73.486,174.422,166.957,182.885v45.289h-50.087c-9.22,0-16.696,7.475-16.696,16.696
			S179.997,512,189.217,512h133.565c9.22,0,16.696-7.475,16.696-16.696s-7.475-16.696-16.696-16.696h-50.087V433.32
			C366.166,424.857,439.652,346.073,439.652,250.435z"/>
	</g>
</g>
<g>
	<g>
		<path d="M256,0c-64.442,0-116.87,52.428-116.87,116.87v133.565c0,64.442,52.428,116.87,116.87,116.87s116.87-52.428,116.87-116.87
			V116.87C372.87,52.428,320.442,0,256,0z M256,333.913c-40.313,0-74.042-28.837-81.799-66.894h163.597
			C330.042,305.076,296.313,333.913,256,333.913z M339.478,166.957h-50.087c-9.22,0-16.696,7.475-16.696,16.696
			c0,9.22,7.475,16.696,16.696,16.696h50.087v33.391H172.522v-33.391h50.087c9.22,0,16.696-7.475,16.696-16.696
			c0-9.22-7.475-16.696-16.696-16.696h-50.087v-33.391h50.087c9.22,0,16.696-7.475,16.696-16.696s-7.475-16.696-16.696-16.696
			h-48.407c7.757-38.057,41.485-66.783,81.799-66.783s74.042,28.725,81.799,66.783h-48.407c-9.22,0-16.696,7.475-16.696,16.696
			s7.475,16.696,16.696,16.696h50.087V166.957z"/>
	</g>
</g>
</svg>